<?xml version="1.0" standalone="no"?>
<!DOCTYPE svg PUBLIC "-//W3C//DTD SVG 20010904//EN"
 "http://www.w3.org/TR/2001/REC-SVG-20010904/DTD/svg10.dtd">
<svg version="1.0" xmlns="http://www.w3.org/2000/svg"
 width="512.000000pt" height="512.000000pt" viewBox="0 0 512.000000 512.000000"
 preserveAspectRatio="xMidYMid meet">
<metadata>
Created by potrace 1.11, written by Peter Selinger 2001-2013
</metadata>
<g transform="translate(0.000000,512.000000) scale(0.100000,-0.100000)"
fill="#000000" stroke="none">
<path d="M1745 4604 c-523 -216 -947 -504 -1079 -734 -161 -279 -308 -659
-425 -1101 -42 -159 -110 -486 -127 -614 -3 -22 -7 -51 -10 -65 -2 -14 -11
-74 -20 -135 -8 -60 -17 -121 -19 -135 -3 -14 -7 -54 -10 -90 -4 -36 -8 -72
-10 -80 -2 -8 -7 -42 -10 -75 -3 -33 -8 -73 -10 -90 -9 -67 -19 -203 -20 -250
0 -45 6 -58 48 -118 189 -265 551 -488 929 -573 50 -11 67 -15 118 -23 142
-25 323 -39 407 -32 6 1 44 49 84 108 40 60 75 110 78 113 3 3 35 49 71 103
75 112 46 104 245 63 212 -44 291 -51 565 -51 283 0 375 8 590 52 69 14 136
27 150 30 23 3 39 -17 170 -210 l145 -213 60 2 c140 5 309 21 395 39 14 2 50
10 80 16 86 17 267 78 356 119 217 100 382 224 518 390 94 116 109 144 102
199 -3 20 -7 61 -10 91 -14 128 -17 157 -21 190 -2 19 -11 91 -20 160 -17 138
-17 139 -40 295 -9 61 -18 121 -20 135 -26 197 -101 576 -137 690 -104 337
-219 661 -295 830 -14 30 -56 112 -94 181 -58 107 -81 137 -152 206 -213 204
-582 430 -922 562 -112 44 -125 47 -125 29 0 -6 -21 -68 -47 -136 -53 -141
-57 -127 52 -168 39 -15 130 -56 203 -90 202 -96 494 -274 449 -274 -10 0 -26
4 -35 9 -25 13 -347 86 -482 110 -128 22 -150 25 -265 40 -77 10 -98 12 -250
27 -97 10 -560 11 -675 1 -84 -7 -161 -15 -310 -33 -37 -5 -260 -42 -360 -60
-35 -6 -327 -79 -370 -93 l-35 -10 27 22 c80 66 407 248 553 309 22 10 73 31
114 48 41 17 77 32 79 35 4 4 -69 209 -90 253 -14 27 -17 27 -93 -4z m1135
-768 c25 -3 74 -8 110 -11 36 -3 81 -8 100 -11 19 -3 51 -7 70 -10 393 -54
735 -141 1032 -261 l117 -48 41 -102 c72 -181 229 -644 244 -719 2 -10 11 -49
20 -85 16 -69 22 -100 31 -146 3 -16 8 -39 10 -53 3 -14 8 -37 10 -52 3 -16 7
-40 10 -55 3 -16 10 -57 15 -93 5 -36 12 -74 14 -85 4 -19 14 -91 21 -142 2
-13 6 -40 9 -60 4 -21 9 -58 11 -83 3 -25 12 -94 20 -155 8 -60 17 -131 20
-157 12 -109 15 -140 21 -185 l6 -46 -94 -91 c-202 -197 -415 -305 -728 -372
-50 -11 -106 -17 -169 -18 l-64 -1 -73 106 -73 106 112 48 c93 40 270 128 339
170 9 5 46 28 82 49 l66 40 -17 25 c-62 97 -149 221 -155 221 -3 0 -43 -23
-89 -51 -102 -64 -266 -146 -382 -193 -79 -32 -259 -93 -297 -101 -8 -2 -46
-11 -85 -20 -363 -84 -753 -95 -1100 -30 -95 18 -188 39 -250 55 -211 55 -486
175 -684 299 l-75 47 -82 -125 -83 -125 32 -22 c110 -74 367 -207 509 -263
l58 -23 -74 -107 -74 -106 -64 1 c-77 0 -138 9 -248 35 -246 58 -461 175 -646
351 l-95 92 6 85 c3 48 8 100 10 116 3 17 7 53 10 80 9 89 15 139 21 172 3 18
7 54 10 80 2 27 9 73 14 103 5 30 12 75 15 100 4 25 13 83 21 130 9 47 17 96
19 110 2 14 17 93 35 175 17 83 33 158 35 167 15 73 75 278 128 438 17 52 32
97 32 100 10 37 26 83 67 184 27 67 54 133 59 148 7 17 22 30 42 37 33 9 60
17 250 71 241 69 613 157 908 215 9 2 66 11 125 20 60 9 120 18 134 21 14 2
59 7 100 10 41 4 77 8 79 10 5 4 400 -4 451 -10z"/>
<path d="M1564 2334 l0 -251 151 1 150 0 0 242 c0 133 -4 246 -8 251 -5 4 -73
8 -151 8 l-142 0 0 -251z"/>
<path d="M3256 2580 c-1 -3 -2 -115 -2 -250 l1 -245 150 0 150 0 0 243 c0 134
-2 247 -5 251 -6 8 -291 9 -294 1z"/>
</g>
</svg>
